<?xml version="1.0" standalone="no"?>
<!DOCTYPE svg PUBLIC "-//W3C//DTD SVG 20010904//EN"
 "http://www.w3.org/TR/2001/REC-SVG-20010904/DTD/svg10.dtd">
<svg version="1.0" xmlns="http://www.w3.org/2000/svg"
 width="1280.000000pt" height="1280.000000pt" viewBox="0 0 1280.000000 1280.000000"
 preserveAspectRatio="xMidYMid meet">
<g transform="translate(0.000000,1280.000000) scale(0.100000,-0.100000)"
fill="#000000" stroke="none">
<path d="M6815 12787 c-4 -12 -95 -962 -95 -991 0 -10 9 -16 24 -16 21 0 24 5
30 58 9 82 86 922 86 937 0 17 -40 27 -45 12z"/>
<path d="M6134 12568 c3 -117 11 -361 16 -543 5 -181 12 -399 16 -483 l6 -153
92 7 c50 4 92 8 94 9 1 1 -2 127 -7 281 -6 153 -15 457 -21 674 -7 217 -13
401 -15 408 -3 8 -31 12 -96 12 l-92 0 7 -212z"/>
<path d="M5491 12711 c-13 -8 -4 -81 58 -498 40 -268 74 -490 76 -492 2 -2 16
-1 30 3 16 4 25 13 25 26 0 11 -31 233 -70 492 -38 260 -70 473 -70 475 0 7
-36 2 -49 -6z"/>
<path d="M7476 12673 c-18 -60 -195 -947 -190 -954 3 -5 15 -9 27 -9 22 0 27
20 122 480 54 264 97 482 94 484 -2 2 -14 7 -26 10 -16 5 -23 2 -27 -11z"/>
<path d="M4833 12593 c-7 -2 -13 -11 -13 -20 0 -12 207 -866 226 -935 7 -22
52 -24 61 -3 3 9 -47 229 -112 490 -121 493 -119 486 -162 468z"/>
<path d="M8147 12543 c-2 -5 -69 -221 -147 -482 -147 -487 -149 -497 -101
-488 10 1 62 160 157 477 131 433 142 476 127 488 -19 14 -30 15 -36 5z"/>
<path d="M4195 12386 c-18 -13 -11 -34 154 -467 95 -250 176 -458 181 -462 10
-11 50 10 50 26 0 25 -345 917 -356 917 -5 0 -19 -6 -29 -14z"/>
<path d="M8761 12308 c-5 -13 -91 -221 -191 -462 -183 -443 -189 -462 -141
-453 13 2 381 875 381 904 0 7 -9 17 -20 23 -17 9 -22 7 -29 -12z"/>
<path d="M3580 12120 c-12 -8 22 -84 205 -450 220 -439 234 -463 263 -427 14
17 -414 887 -437 887 -9 0 -23 -5 -31 -10z"/>
<path d="M9000 11468 c-303 -576 -321 -613 -304 -626 25 -18 131 -72 142 -72
9 0 637 1180 644 1209 2 9 -26 31 -72 57 -41 23 -78 43 -81 43 -4 1 -152 -274
-329 -611z"/>
<path d="M3028 11824 c-38 -24 -68 -48 -68 -53 0 -10 706 -1129 726 -1150 11
-12 24 -7 88 33 42 26 76 50 76 52 0 15 -735 1164 -744 1163 -6 0 -41 -20 -78
-45z"/>
<path d="M9671 11308 c-151 -216 -276 -400 -278 -410 -3 -9 3 -21 15 -27 18
-9 45 26 302 395 231 333 280 408 270 419 -7 8 -18 15 -24 15 -6 0 -135 -177
-285 -392z"/>
<path d="M2458 11416 c-10 -7 -18 -16 -18 -20 0 -5 564 -725 606 -775 5 -6 54
20 54 28 0 8 -610 776 -618 778 -4 1 -15 -4 -24 -11z"/>
<path d="M10157 10933 c-316 -374 -318 -376 -298 -396 19 -20 19 -20 49 14 16
19 160 189 320 378 276 326 291 346 275 363 -9 10 -19 18 -22 18 -3 -1 -149
-170 -324 -377z"/>
<path d="M1949 10971 l-23 -19 349 -356 c192 -196 352 -356 355 -356 4 0 15 9
25 20 17 19 9 28 -331 375 -191 195 -349 355 -350 355 -1 0 -12 -8 -25 -19z"/>
<path d="M10606 10514 c-196 -185 -356 -339 -356 -343 0 -3 7 -15 15 -26 15
-18 17 -18 58 21 23 22 170 161 327 309 157 147 301 283 320 302 28 27 33 36
24 50 -6 9 -15 18 -21 20 -6 2 -171 -148 -367 -333z"/>
<path d="M1495 10480 c-11 -12 -15 -24 -9 -29 5 -5 178 -147 384 -316 l374
-307 19 23 c18 22 18 23 -5 45 -36 36 -731 604 -738 604 -4 0 -15 -9 -25 -20z"/>
<path d="M11017 10059 l-396 -301 16 -25 c9 -13 21 -22 27 -20 23 8 785 593
786 603 0 6 -8 18 -18 28 -18 15 -39 1 -415 -285z"/>
<path d="M1096 9939 c-9 -13 -12 -26 -8 -30 32 -29 810 -513 825 -513 19 -1
46 28 37 38 -9 8 -813 518 -826 523 -6 2 -19 -6 -28 -18z"/>
<path d="M11223 9470 c-320 -180 -592 -333 -604 -342 l-23 -15 48 -77 c36 -58
52 -76 65 -71 15 6 1192 663 1200 671 5 4 -77 140 -92 152 -8 6 -204 -99 -594
-318z"/>
<path d="M803 9477 c-18 -22 -85 -148 -81 -152 11 -11 1203 -635 1213 -635 15
0 98 151 88 160 -6 5 -1041 552 -1194 631 -11 5 -20 4 -26 -4z"/>
<path d="M11680 9014 c-239 -118 -436 -217 -439 -219 -7 -8 21 -55 33 -55 10
0 884 425 893 434 8 7 -29 56 -41 55 -6 0 -207 -97 -446 -215z"/>
<path d="M484 8784 c-8 -20 -14 -38 -12 -39 12 -11 911 -364 918 -360 4 3 13
19 19 35 9 28 8 32 -12 39 -12 5 -195 79 -407 164 -212 86 -409 165 -438 176
l-53 21 -15 -36z"/>
<path d="M11932 8435 c-255 -90 -465 -165 -468 -168 -8 -8 7 -57 17 -57 10 0
851 293 907 316 28 11 32 17 27 36 -4 13 -10 26 -14 29 -3 4 -214 -67 -469
-156z"/>
<path d="M270 8159 c-6 -11 -10 -27 -8 -36 2 -12 124 -50 473 -149 258 -73
473 -130 478 -125 4 4 9 21 10 36 l2 29 -465 133 c-256 73 -468 133 -472 133
-4 0 -12 -9 -18 -21z"/>
<path d="M12096 7860 c-248 -60 -456 -112 -464 -115 -10 -4 -12 -13 -7 -33 4
-15 8 -28 9 -30 2 -1 218 49 482 112 l479 113 0 29 c0 24 -5 29 -25 31 -14 1
-227 -47 -474 -107z"/>
<path d="M117 7523 c-4 -3 -7 -18 -7 -33 0 -27 3 -28 108 -48 59 -12 267 -53
462 -91 452 -88 405 -83 405 -41 l0 35 -465 92 c-484 96 -492 97 -503 86z"/>
<path d="M12205 7254 c-253 -34 -461 -63 -463 -63 -2 -1 -2 -11 0 -23 3 -21 8
-23 63 -22 77 2 907 112 917 122 4 4 5 17 2 30 -5 16 -13 22 -33 21 -14 -1
-233 -30 -486 -65z"/>
<path d="M34 6847 c-3 -9 -4 -24 -2 -34 3 -16 48 -22 478 -60 261 -23 483 -42
492 -42 10 -1 19 10 23 30 4 17 5 32 3 34 -3 3 -745 70 -910 82 -65 5 -79 3
-84 -10z"/>
<path d="M6313 6721 c-97 -36 -166 -102 -215 -206 -29 -63 -33 -79 -33 -160 0
-84 3 -96 35 -159 l34 -68 -20 -37 c-114 -203 -147 -266 -207 -391 -388 -815
-800 -1989 -1192 -3403 -71 -253 -82 -309 -56 -281 5 5 67 117 139 249 849
1572 1432 2877 1629 3649 l18 70 72 17 c116 29 187 73 244 152 l28 39 423 2
c233 2 484 8 558 15 690 58 1067 107 1790 232 212 37 263 50 249 63 -9 9 -573
53 -984 77 -304 17 -1044 23 -1320 10 -265 -13 -371 -21 -580 -47 l-130 -16
-20 28 c-50 70 -92 106 -162 141 -66 32 -85 37 -161 40 -68 3 -99 -1 -139 -16z"/>
<path d="M12070 6668 c-360 -5 -659 -13 -663 -18 -5 -4 -6 -47 -2 -94 l7 -86
642 5 c352 3 665 8 694 11 l52 5 0 75 c0 90 -10 115 -48 112 -15 -1 -322 -5
-682 -10z"/>
<path d="M775 6320 c-203 -4 -461 -8 -572 -9 l-203 -1 0 -57 c0 -32 3 -76 7
-97 l6 -39 311 6 c171 4 483 10 694 13 l383 7 -3 91 -3 91 -125 1 c-69 0 -291
-3 -495 -6z"/>
<path d="M11786 6044 c-4 -14 -5 -28 -3 -30 2 -3 26 -7 53 -10 111 -11 849
-64 895 -64 45 0 49 2 49 25 0 31 26 28 -495 65 -236 17 -444 33 -461 35 -28
5 -33 2 -38 -21z"/>
<path d="M575 5613 c-259 -35 -476 -66 -482 -68 -7 -2 -13 -15 -13 -27 1 -55
-17 -55 496 13 l479 64 3 34 c2 18 0 37 -5 41 -4 4 -219 -22 -478 -57z"/>
<path d="M11717 5478 c-4 -12 -5 -23 -3 -25 2 -2 649 -123 914 -171 50 -9 54
-8 62 12 4 11 5 24 1 28 -7 8 -911 178 -947 178 -14 0 -24 -8 -27 -22z"/>
<path d="M678 4987 c-251 -62 -460 -115 -463 -118 -12 -13 7 -59 25 -59 9 0
223 50 475 110 252 61 459 110 461 110 6 0 5 37 -2 54 -3 9 -14 16 -23 15 -9
0 -222 -51 -473 -112z"/>
<path d="M11589 4934 c-5 -15 -8 -28 -7 -29 5 -5 932 -278 948 -279 10 -1 15
8 15 28 l0 29 -470 138 c-258 76 -471 139 -473 139 -1 0 -7 -12 -13 -26z"/>
<path d="M847 4411 c-246 -87 -450 -160 -452 -163 -7 -6 15 -68 23 -68 18 0
932 324 932 331 0 25 -22 59 -37 58 -10 0 -220 -72 -466 -158z"/>
<path d="M11405 4401 c-3 -11 -4 -24 -1 -29 3 -4 208 -89 457 -187 431 -171
452 -178 465 -160 8 10 14 22 14 25 0 6 -868 356 -909 367 -13 3 -21 -2 -26
-16z"/>
<path d="M10831 4064 c-23 -41 -41 -81 -41 -87 0 -14 1166 -682 1189 -682 15
0 91 126 91 149 0 9 -569 339 -1141 664 l-57 32 -41 -76z"/>
<path d="M1106 3826 c-242 -117 -441 -217 -443 -222 -1 -5 5 -19 15 -32 l18
-23 414 200 c466 224 470 226 470 239 0 6 -8 19 -17 30 -18 20 -22 18 -457
-192z"/>
<path d="M1520 3499 c-311 -203 -572 -374 -580 -379 -13 -8 -11 -17 15 -65 16
-30 39 -66 50 -80 l20 -25 570 371 c314 203 577 374 584 379 12 6 6 23 -34 89
-27 45 -51 81 -54 80 -4 0 -260 -167 -571 -370z"/>
<path d="M10873 3399 c-7 -7 -13 -18 -13 -25 0 -8 744 -508 816 -548 7 -3 19
5 28 19 l16 25 -402 266 c-222 147 -410 269 -418 271 -8 2 -21 -2 -27 -8z"/>
<path d="M1761 2800 c-206 -159 -381 -296 -388 -303 -12 -11 -11 -17 5 -37 15
-18 23 -22 33 -14 8 6 181 140 386 298 205 158 375 291 378 296 8 13 -13 50
-28 50 -7 0 -180 -131 -386 -290z"/>
<path d="M10551 2952 c-10 -20 99 -118 721 -650 14 -12 20 -12 33 -2 8 7 15
16 15 20 0 8 -734 643 -749 648 -6 2 -14 -6 -20 -16z"/>
<path d="M2161 2329 c-193 -189 -351 -349 -351 -355 0 -6 9 -19 20 -29 19 -17
27 -10 370 325 192 189 350 348 350 355 0 6 -9 20 -19 30 -19 17 -30 8 -370
-326z"/>
<path d="M10150 2525 c-11 -13 13 -41 162 -198 97 -100 248 -258 337 -352 89
-93 168 -171 175 -173 7 -2 18 4 25 12 11 13 -41 71 -325 368 -185 194 -342
354 -349 356 -6 2 -18 -4 -25 -13z"/>
<path d="M2665 1969 c-143 -166 -287 -333 -319 -371 l-59 -69 22 -22 c14 -14
24 -18 29 -11 4 6 148 174 321 374 255 294 312 366 304 379 -6 9 -16 17 -24
19 -8 1 -130 -132 -274 -299z"/>
<path d="M9040 2155 c-41 -25 -74 -51 -72 -58 2 -6 152 -283 334 -615 l330
-603 32 19 c106 64 126 78 124 89 -4 18 -662 1213 -668 1213 -3 0 -39 -20 -80
-45z"/>
<path d="M9741 2167 c-9 -12 46 -89 286 -405 164 -215 303 -391 309 -392 6 0
17 6 23 14 10 12 -45 88 -285 403 -163 213 -302 389 -308 391 -7 2 -18 -3 -25
-11z"/>
<path d="M3651 1419 c-262 -468 -339 -614 -329 -621 43 -29 152 -78 158 -71 9
10 680 1212 680 1217 0 6 -146 86 -157 86 -5 0 -164 -275 -352 -611z"/>
<path d="M3086 1533 l-279 -406 23 -19 c13 -10 27 -15 31 -11 16 17 541 787
546 801 6 13 -21 43 -36 42 -3 -1 -132 -184 -285 -407z"/>
<path d="M8778 1558 c-14 -12 8 -62 194 -448 115 -239 215 -441 222 -448 10
-10 16 -10 30 1 18 13 6 40 -189 448 -207 432 -221 459 -234 459 -4 0 -14 -6
-23 -12z"/>
<path d="M4192 952 c-100 -246 -182 -453 -182 -460 0 -19 43 -33 52 -17 26 43
366 901 360 906 -4 4 -16 10 -28 13 -19 6 -35 -29 -202 -442z"/>
<path d="M6436 1391 c-5 -8 0 -289 20 -1130 l6 -263 87 7 c47 4 89 10 94 14 4
4 3 194 -2 422 -6 228 -13 537 -17 687 l-6 272 -89 0 c-48 0 -90 -4 -93 -9z"/>
<path d="M8258 1343 c-10 -3 -18 -12 -18 -21 1 -35 328 -917 342 -919 7 -2 19
1 27 6 12 7 -17 94 -154 471 -93 253 -171 462 -174 464 -3 1 -14 1 -23 -1z"/>
<path d="M4907 1213 c-3 -5 -66 -219 -140 -476 l-135 -468 25 -12 c19 -8 26
-8 32 2 10 15 271 922 271 939 0 7 -4 12 -9 12 -5 0 -16 3 -24 6 -8 3 -17 2
-20 -3z"/>
<path d="M7728 1173 c-10 -3 -18 -10 -18 -17 0 -12 212 -884 226 -928 6 -21
42 -24 49 -5 6 14 -222 938 -233 948 -4 3 -15 4 -24 2z"/>
<path d="M5445 1078 c-19 -82 -163 -952 -159 -959 3 -5 16 -9 29 -9 19 0 25 6
30 33 92 521 161 933 156 938 -3 4 -16 10 -28 13 -18 6 -23 2 -28 -16z"/>
<path d="M7137 1053 c-3 -7 95 -723 124 -906 l11 -68 31 3 c29 3 32 6 29 33
-4 41 -121 872 -128 913 -5 27 -10 32 -35 32 -15 0 -30 -3 -32 -7z"/>
<path d="M6026 963 c-4 -32 -15 -173 -26 -313 -12 -140 -27 -334 -35 -430 -8
-96 -15 -178 -15 -182 0 -4 11 -8 25 -8 29 0 29 3 44 205 9 119 28 350 57 708
l6 77 -25 0 c-23 0 -26 -4 -31 -57z"/>
</g>
</svg>
